<?xml version="1.0" encoding="utf-8" ?>
<svg baseProfile="full" height="1000" version="1.1" width="1000" xmlns="http://www.w3.org/2000/svg" xmlns:ev="http://www.w3.org/2001/xml-events" xmlns:xlink="http://www.w3.org/1999/xlink"><defs /><polygon fill="blue" opacity="0.5" points="-50.0,150.0 -50.0,250.0 50.0,250.0" stroke="black" /><polygon fill="blue" opacity="0.5" points="-50.0,150.0 50.0,250.0 50.0,150.0" stroke="black" /><polygon fill="red" opacity="0.5" points="-50.0,150.0 -50.0,250.0 50.0,250.0" stroke="black" /><polygon fill="red" opacity="0.5" points="-50.0,150.0 50.0,150.0 50.0,250.0" stroke="black" /><polygon fill="green" opacity="0.5" points="-50.0,150.0 -50.0,150.0 50.0,150.0" stroke="black" /><polygon fill="green" opacity="0.5" points="-50.0,150.0 50.0,150.0 50.0,150.0" stroke="black" /><polygon fill="purple" opacity="0.5" points="-50.0,250.0 -50.0,150.0 -50.0,150.0" stroke="black" /><polygon fill="purple" opacity="0.5" points="-50.0,250.0 -50.0,250.0 -50.0,150.0" stroke="black" /><polygon fill="yellow" opacity="0.5" points="50.0,250.0 50.0,150.0 50.0,150.0" stroke="black" /><polygon fill="yellow" opacity="0.5" points="50.0,250.0 50.0,250.0 50.0,150.0" stroke="black" /><polygon fill="white" opacity="0.5" points="-50.0,250.0 50.0,250.0 50.0,250.0" stroke="black" /><polygon fill="white" opacity="0.5" points="-50.0,250.0 -50.0,250.0 50.0,250.0" stroke="black" /><polygon fill="blue" opacity="0.5" points="196.74157403552599,170.08815972183933 187.06329892271043,218.81583617974832 228.88911410960083,230.023029581849" stroke="black" /><polygon fill="blue" opacity="0.5" points="196.74157403552599,170.08815972183933 228.88911410960083,230.023029581849 238.56738922241638,181.29535312394" stroke="black" /><polygon fill="red" opacity="0.5" points="171.11088589039917,169.976970418151 161.43261077758362,218.70464687606 203.25842596447401,229.91184027816067" stroke="black" /><polygon fill="red" opacity="0.5" points="171.11088589039917,169.976970418151 212.93670107728957,181.18416382025168 203.25842596447401,229.91184027816067" stroke="black" /><polygon fill="green" opacity="0.5" points="196.74157403552599,170.08815972183933 171.11088589039917,169.976970418151 238.56738922241638,181.29535312394" stroke="black" /><polygon fill="green" opacity="0.5" points="171.11088589039917,169.976970418151 212.93670107728957,181.18416382025168 238.56738922241638,181.29535312394" stroke="black" /><polygon fill="purple" opacity="0.5" points="187.06329892271043,218.81583617974832 196.74157403552599,170.08815972183933 171.11088589039917,169.976970418151" stroke="black" /><polygon fill="purple" opacity="0.5" points="187.06329892271043,218.81583617974832 161.43261077758362,218.70464687606 171.11088589039917,169.976970418151" stroke="black" /><polygon fill="yellow" opacity="0.5" points="228.88911410960083,230.023029581849 238.56738922241638,181.29535312394 212.93670107728957,181.18416382025168" stroke="black" /><polygon fill="yellow" opacity="0.5" points="228.88911410960083,230.023029581849 203.25842596447401,229.91184027816067 212.93670107728957,181.18416382025168" stroke="black" /><polygon fill="white" opacity="0.5" points="187.06329892271043,218.81583617974832 228.88911410960083,230.023029581849 203.25842596447401,229.91184027816067" stroke="black" /><polygon fill="white" opacity="0.5" points="187.06329892271043,218.81583617974832 161.43261077758362,218.70464687606 203.25842596447401,229.91184027816067" stroke="black" /><polygon fill="blue" opacity="0.5" points="411.8281636615581,183.25876743446793 402.19987601763665,214.87837535976175 416.6336327473773,223.2117086930951" stroke="black" /><polygon fill="blue" opacity="0.5" points="411.8281636615581,183.25876743446793 416.6336327473773,223.2117086930951 426.26192039129876,191.59210076780127" stroke="black" /><polygon fill="red" opacity="0.5" points="383.3663672526227,176.7882913069049 373.73807960870124,208.40789923219873 388.1718363384419,216.74123256553207" stroke="black" /><polygon fill="red" opacity="0.5" points="383.3663672526227,176.7882913069049 397.80012398236335,185.12162464023825 388.1718363384419,216.74123256553207" stroke="black" /><polygon fill="green" opacity="0.5" points="411.8281636615581,183.25876743446793 383.3663672526227,176.7882913069049 426.26192039129876,191.59210076780127" stroke="black" /><polygon fill="green" opacity="0.5" points="383.3663672526227,176.7882913069049 397.80012398236335,185.12162464023825 426.26192039129876,191.59210076780127" stroke="black" /><polygon fill="purple" opacity="0.5" points="402.19987601763665,214.87837535976175 411.8281636615581,183.25876743446793 383.3663672526227,176.7882913069049" stroke="black" /><polygon fill="purple" opacity="0.5" points="402.19987601763665,214.87837535976175 373.73807960870124,208.40789923219873 383.3663672526227,176.7882913069049" stroke="black" /><polygon fill="yellow" opacity="0.5" points="416.6336327473773,223.2117086930951 426.26192039129876,191.59210076780127 397.80012398236335,185.12162464023825" stroke="black" /><polygon fill="yellow" opacity="0.5" points="416.6336327473773,223.2117086930951 388.1718363384419,216.74123256553207 397.80012398236335,185.12162464023825" stroke="black" /><polygon fill="white" opacity="0.5" points="402.19987601763665,214.87837535976175 416.6336327473773,223.2117086930951 388.1718363384419,216.74123256553207" stroke="black" /><polygon fill="white" opacity="0.5" points="402.19987601763665,214.87837535976175 373.73807960870124,208.40789923219873 388.1718363384419,216.74123256553207" stroke="black" /><polygon fill="blue" opacity="0.5" points="616.3320370609547,193.23504874817255 606.7649512518275,216.33203706095472 606.7649512518275,216.33203706095472" stroke="black" /><polygon fill="blue" opacity="0.5" points="616.3320370609547,193.23504874817255 606.7649512518275,216.33203706095472 616.3320370609547,193.23504874817255" stroke="black" /><polygon fill="red" opacity="0.5" points="593.2350487481725,183.66796293904528 583.6679629390453,206.76495125182745 583.6679629390453,206.76495125182745" stroke="black" /><polygon fill="red" opacity="0.5" points="593.2350487481725,183.66796293904528 593.2350487481725,183.66796293904528 583.6679629390453,206.76495125182745" stroke="black" /><polygon fill="green" opacity="0.5" points="616.3320370609547,193.23504874817255 593.2350487481725,183.66796293904528 616.3320370609547,193.23504874817255" stroke="black" /><polygon fill="green" opacity="0.5" points="593.2350487481725,183.66796293904528 593.2350487481725,183.66796293904528 616.3320370609547,193.23504874817255" stroke="black" /><polygon fill="purple" opacity="0.5" points="606.7649512518275,216.33203706095472 616.3320370609547,193.23504874817255 593.2350487481725,183.66796293904528" stroke="black" /><polygon fill="purple" opacity="0.5" points="606.7649512518275,216.33203706095472 583.6679629390453,206.76495125182745 593.2350487481725,183.66796293904528" stroke="black" /><polygon fill="yellow" opacity="0.5" points="606.7649512518275,216.33203706095472 616.3320370609547,193.23504874817255 593.2350487481725,183.66796293904528" stroke="black" /><polygon fill="yellow" opacity="0.5" points="606.7649512518275,216.33203706095472 583.6679629390453,206.76495125182745 593.2350487481725,183.66796293904528" stroke="black" /><polygon fill="white" opacity="0.5" points="606.7649512518275,216.33203706095472 606.7649512518275,216.33203706095472 583.6679629390453,206.76495125182745" stroke="black" /><polygon fill="white" opacity="0.5" points="606.7649512518275,216.33203706095472 583.6679629390453,206.76495125182745 583.6679629390453,206.76495125182745" stroke="black" /><polygon fill="blue" opacity="0.5" points="815.9150635094611,200.2451905283833 805.2451905283833,216.4054445662277 800.2451905283833,207.7451905283833" stroke="black" /><polygon fill="blue" opacity="0.5" points="815.9150635094611,200.2451905283833 800.2451905283833,207.7451905283833 810.9150635094611,191.5849364905389" stroke="black" /><polygon fill="red" opacity="0.5" points="799.7548094716167,192.2548094716167 789.0849364905389,208.4150635094611 784.0849364905389,199.7548094716167" stroke="black" /><polygon fill="red" opacity="0.5" points="799.7548094716167,192.2548094716167 794.7548094716167,183.5945554337723 784.0849364905389,199.7548094716167" stroke="black" /><polygon fill="green" opacity="0.5" points="815.9150635094611,200.2451905283833 799.7548094716167,192.2548094716167 810.9150635094611,191.5849364905389" stroke="black" /><polygon fill="green" opacity="0.5" points="799.7548094716167,192.2548094716167 794.7548094716167,183.5945554337723 810.9150635094611,191.5849364905389" stroke="black" /><polygon fill="purple" opacity="0.5" points="805.2451905283833,216.4054445662277 815.9150635094611,200.2451905283833 799.7548094716167,192.2548094716167" stroke="black" /><polygon fill="purple" opacity="0.5" points="805.2451905283833,216.4054445662277 789.0849364905389,208.4150635094611 799.7548094716167,192.2548094716167" stroke="black" /><polygon fill="yellow" opacity="0.5" points="800.2451905283833,207.7451905283833 810.9150635094611,191.5849364905389 794.7548094716167,183.5945554337723" stroke="black" /><polygon fill="yellow" opacity="0.5" points="800.2451905283833,207.7451905283833 784.0849364905389,199.7548094716167 794.7548094716167,183.5945554337723" stroke="black" /><polygon fill="white" opacity="0.5" points="805.2451905283833,216.4054445662277 800.2451905283833,207.7451905283833 784.0849364905389,199.7548094716167" stroke="black" /><polygon fill="white" opacity="0.5" points="805.2451905283833,216.4054445662277 789.0849364905389,208.4150635094611 784.0849364905389,199.7548094716167" stroke="black" /><polygon fill="blue" opacity="0.5" points="1013.3530890519673,204.68977787699478 1001.8940731372279,213.01218032911402 998.1583420031943,199.07024193348389" stroke="black" /><polygon fill="blue" opacity="0.5" points="1013.3530890519673,204.68977787699478 998.1583420031943,199.07024193348389 1009.6173579179338,190.74783948136465" stroke="black" /><polygon fill="red" opacity="0.5" points="1001.8416579968057,200.92975806651611 990.3826420820662,209.25216051863535 986.6469109480327,195.31022212300522" stroke="black" /><polygon fill="red" opacity="0.5" points="1001.8416579968057,200.92975806651611 998.1059268627721,186.98781967088598 986.6469109480327,195.31022212300522" stroke="black" /><polygon fill="green" opacity="0.5" points="1013.3530890519673,204.68977787699478 1001.8416579968057,200.92975806651611 1009.6173579179338,190.74783948136465" stroke="black" /><polygon fill="green" opacity="0.5" points="1001.8416579968057,200.92975806651611 998.1059268627721,186.98781967088598 1009.6173579179338,190.74783948136465" stroke="black" /><polygon fill="purple" opacity="0.5" points="1001.8940731372279,213.01218032911402 1013.3530890519673,204.68977787699478 1001.8416579968057,200.92975806651611" stroke="black" /><polygon fill="purple" opacity="0.5" points="1001.8940731372279,213.01218032911402 990.3826420820662,209.25216051863535 1001.8416579968057,200.92975806651611" stroke="black" /><polygon fill="yellow" opacity="0.5" points="998.1583420031943,199.07024193348389 1009.6173579179338,190.74783948136465 998.1059268627721,186.98781967088598" stroke="black" /><polygon fill="yellow" opacity="0.5" points="998.1583420031943,199.07024193348389 986.6469109480327,195.31022212300522 998.1059268627721,186.98781967088598" stroke="black" /><polygon fill="white" opacity="0.5" points="1001.8940731372279,213.01218032911402 998.1583420031943,199.07024193348389 986.6469109480327,195.31022212300522" stroke="black" /><polygon fill="white" opacity="0.5" points="1001.8940731372279,213.01218032911402 990.3826420820662,209.25216051863535 986.6469109480327,195.31022212300522" stroke="black" /><polygon fill="blue" opacity="0.5" points="1210.1015254455222,207.14285714285714 1200.0,207.14285714285714 1200.0,192.85714285714286" stroke="black" /><polygon fill="blue" opacity="0.5" points="1210.1015254455222,207.14285714285714 1200.0,192.85714285714286 1210.1015254455222,192.85714285714286" stroke="black" /><polygon fill="red" opacity="0.5" points="1200.0,207.14285714285714 1189.8984745544778,207.14285714285714 1189.8984745544778,192.85714285714286" stroke="black" /><polygon fill="red" opacity="0.5" points="1200.0,207.14285714285714 1200.0,192.85714285714286 1189.8984745544778,192.85714285714286" stroke="black" /><polygon fill="green" opacity="0.5" points="1210.1015254455222,207.14285714285714 1200.0,207.14285714285714 1210.1015254455222,192.85714285714286" stroke="black" /><polygon fill="green" opacity="0.5" points="1200.0,207.14285714285714 1200.0,192.85714285714286 1210.1015254455222,192.85714285714286" stroke="black" /><polygon fill="purple" opacity="0.5" points="1200.0,207.14285714285714 1210.1015254455222,207.14285714285714 1200.0,207.14285714285714" stroke="black" /><polygon fill="purple" opacity="0.5" points="1200.0,207.14285714285714 1189.8984745544778,207.14285714285714 1200.0,207.14285714285714" stroke="black" /><polygon fill="yellow" opacity="0.5" points="1200.0,192.85714285714286 1210.1015254455222,192.85714285714286 1200.0,192.85714285714286" stroke="black" /><polygon fill="yellow" opacity="0.5" points="1200.0,192.85714285714286 1189.8984745544778,192.85714285714286 1200.0,192.85714285714286" stroke="black" /><polygon fill="white" opacity="0.5" points="1200.0,207.14285714285714 1200.0,192.85714285714286 1189.8984745544778,192.85714285714286" stroke="black" /><polygon fill="white" opacity="0.5" points="1200.0,207.14285714285714 1189.8984745544778,207.14285714285714 1189.8984745544778,192.85714285714286" stroke="black" /><polygon fill="blue" opacity="0.5" points="1406.9144190496265,208.05350847917552 1400.8475326827938,201.29451732753446 1403.649331033319,190.83806353081187" stroke="black" /><polygon fill="blue" opacity="0.5" points="1406.9144190496265,208.05350847917552 1403.649331033319,190.83806353081187 1409.716217400152,197.59705468245292" stroke="black" /><polygon fill="red" opacity="0.5" points="1396.350668966681,209.16193646918813 1390.283782599848,202.40294531754708 1393.0855809503735,191.94649152082448" stroke="black" /><polygon fill="red" opacity="0.5" points="1396.350668966681,209.16193646918813 1399.1524673172062,198.70548267246554 1393.0855809503735,191.94649152082448" stroke="black" /><polygon fill="green" opacity="0.5" points="1406.9144190496265,208.05350847917552 1396.350668966681,209.16193646918813 1409.716217400152,197.59705468245292" stroke="black" /><polygon fill="green" opacity="0.5" points="1396.350668966681,209.16193646918813 1399.1524673172062,198.70548267246554 1409.716217400152,197.59705468245292" stroke="black" /><polygon fill="purple" opacity="0.5" points="1400.8475326827938,201.29451732753446 1406.9144190496265,208.05350847917552 1396.350668966681,209.16193646918813" stroke="black" /><polygon fill="purple" opacity="0.5" points="1400.8475326827938,201.29451732753446 1390.283782599848,202.40294531754708 1396.350668966681,209.16193646918813" stroke="black" /><polygon fill="yellow" opacity="0.5" points="1403.649331033319,190.83806353081187 1409.716217400152,197.59705468245292 1399.1524673172062,198.70548267246554" stroke="black" /><polygon fill="yellow" opacity="0.5" points="1403.649331033319,190.83806353081187 1393.0855809503735,191.94649152082448 1399.1524673172062,198.70548267246554" stroke="black" /><polygon fill="white" opacity="0.5" points="1400.8475326827938,201.29451732753446 1403.649331033319,190.83806353081187 1393.0855809503735,191.94649152082448" stroke="black" /><polygon fill="white" opacity="0.5" points="1400.8475326827938,201.29451732753446 1390.283782599848,202.40294531754708 1393.0855809503735,191.94649152082448" stroke="black" /><polygon fill="blue" opacity="0.5" points="1604.3028836268795,207.7252469812376 1603.6582980502994,197.7305908385895 1606.4360758280773,192.91933859534262" stroke="black" /><polygon fill="blue" opacity="0.5" points="1604.3028836268795,207.7252469812376 1606.4360758280773,192.91933859534262 1607.0806614046573,202.91399473799072" stroke="black" /><polygon fill="red" opacity="0.5" points="1593.5639241719227,207.08066140465738 1592.9193385953427,197.08600526200928 1595.6971163731205,192.2747530187624" stroke="black" /><polygon fill="red" opacity="0.5" points="1593.5639241719227,207.08066140465738 1596.3417019497006,202.2694091614105 1595.6971163731205,192.2747530187624" stroke="black" /><polygon fill="green" opacity="0.5" points="1604.3028836268795,207.7252469812376 1593.5639241719227,207.08066140465738 1607.0806614046573,202.91399473799072" stroke="black" /><polygon fill="green" opacity="0.5" points="1593.5639241719227,207.08066140465738 1596.3417019497006,202.2694091614105 1607.0806614046573,202.91399473799072" stroke="black" /><polygon fill="purple" opacity="0.5" points="1603.6582980502994,197.7305908385895 1604.3028836268795,207.7252469812376 1593.5639241719227,207.08066140465738" stroke="black" /><polygon fill="purple" opacity="0.5" points="1603.6582980502994,197.7305908385895 1592.9193385953427,197.08600526200928 1593.5639241719227,207.08066140465738" stroke="black" /><polygon fill="yellow" opacity="0.5" points="1606.4360758280773,192.91933859534262 1607.0806614046573,202.91399473799072 1596.3417019497006,202.2694091614105" stroke="black" /><polygon fill="yellow" opacity="0.5" points="1606.4360758280773,192.91933859534262 1595.6971163731205,192.2747530187624 1596.3417019497006,202.2694091614105" stroke="black" /><polygon fill="white" opacity="0.5" points="1603.6582980502994,197.7305908385895 1606.4360758280773,192.91933859534262 1595.6971163731205,192.2747530187624" stroke="black" /><polygon fill="white" opacity="0.5" points="1603.6582980502994,197.7305908385895 1592.9193385953427,197.08600526200928 1595.6971163731205,192.2747530187624" stroke="black" /><polygon fill="blue" opacity="0.5" points="1802.705980500731,206.5328148243819 1806.5328148243818,197.294019499269 1806.5328148243818,197.294019499269" stroke="black" /><polygon fill="blue" opacity="0.5" points="1802.705980500731,206.5328148243819 1806.5328148243818,197.294019499269 1802.705980500731,206.5328148243819" stroke="black" /><polygon fill="red" opacity="0.5" points="1793.4671851756182,202.705980500731 1797.294019499269,193.4671851756181 1797.294019499269,193.4671851756181" stroke="black" /><polygon fill="red" opacity="0.5" points="1793.4671851756182,202.705980500731 1793.4671851756182,202.705980500731 1797.294019499269,193.4671851756181" stroke="black" /><polygon fill="green" opacity="0.5" points="1802.705980500731,206.5328148243819 1793.4671851756182,202.705980500731 1802.705980500731,206.5328148243819" stroke="black" /><polygon fill="green" opacity="0.5" points="1793.4671851756182,202.705980500731 1793.4671851756182,202.705980500731 1802.705980500731,206.5328148243819" stroke="black" /><polygon fill="purple" opacity="0.5" points="1806.5328148243818,197.294019499269 1802.705980500731,206.5328148243819 1793.4671851756182,202.705980500731" stroke="black" /><polygon fill="purple" opacity="0.5" points="1806.5328148243818,197.294019499269 1797.294019499269,193.4671851756181 1793.4671851756182,202.705980500731" stroke="black" /><polygon fill="yellow" opacity="0.5" points="1806.5328148243818,197.294019499269 1802.705980500731,206.5328148243819 1793.4671851756182,202.705980500731" stroke="black" /><polygon fill="yellow" opacity="0.5" points="1806.5328148243818,197.294019499269 1797.294019499269,193.4671851756181 1793.4671851756182,202.705980500731" stroke="black" /><polygon fill="white" opacity="0.5" points="1806.5328148243818,197.294019499269 1806.5328148243818,197.294019499269 1797.294019499269,193.4671851756181" stroke="black" /><polygon fill="white" opacity="0.5" points="1806.5328148243818,197.294019499269 1797.294019499269,193.4671851756181 1797.294019499269,193.4671851756181" stroke="black" /></svg>