<?xml version="1.0" encoding="utf-8" ?>
<svg baseProfile="full" height="1000" version="1.1" width="1000" xmlns="http://www.w3.org/2000/svg" xmlns:ev="http://www.w3.org/2001/xml-events" xmlns:xlink="http://www.w3.org/1999/xlink"><defs /><polygon fill="blue" opacity="0.5" points="63.967563160437535,268.70032250251296 77.55556302831988,319.41142838268905 113.77778151415994,309.70571419134455" stroke="black" /><polygon fill="purple" opacity="0.5" points="77.55556302831988,319.41142838268905 159.70571419134453,336.2222184858401 222.44443697168012,280.58857161731095" stroke="black" /><polygon fill="red" opacity="0.5" points="113.77778151415994,309.70571419134455 144.17657148519328,278.26666890849594 186.22221848584007,290.29428580865545" stroke="black" /><polygon fill="green" opacity="0.5" points="186.22221848584007,290.29428580865545 222.44443697168012,280.58857161731095 208.85643710379776,229.87746573713486" stroke="black" /><polygon fill="blue" opacity="0.5" points="217.04504871165133,254.9219426993576 198.48349570550448,273.4834957055045 211.74174785275224,286.7417478527522" stroke="black" /><polygon fill="purple" opacity="0.5" points="198.48349570550448,273.4834957055045 211.74174785275224,313.2582521472478 251.51650429449552,326.5165042944955" stroke="black" /><polygon fill="red" opacity="0.5" points="211.74174785275224,286.7417478527522 232.95495128834867,292.04504871165136 238.25825214724776,313.2582521472478" stroke="black" /><polygon fill="green" opacity="0.5" points="238.25825214724776,313.2582521472478 251.51650429449552,326.5165042944955 270.0780573006424,307.95495128834864" stroke="black" /><polygon fill="blue" opacity="0.5" points="323.3741780876217,280.3811876320674 306.470476127563,275.8518543427733 303.2352380637815,287.92592717138666" stroke="black" /><polygon fill="purple" opacity="0.5" points="306.470476127563,275.8518543427733 287.92592717138666,296.7647619362185 293.529523872437,324.1481456572267" stroke="black" /><polygon fill="red" opacity="0.5" points="303.2352380637815,287.92592717138666 307.24444369716804,301.9411428382689 296.7647619362185,312.07407282861334" stroke="black" /><polygon fill="green" opacity="0.5" points="296.7647619362185,312.07407282861334 293.529523872437,324.1481456572267 310.4332258324957,328.6774789465208" stroke="black" /><polygon fill="blue" opacity="0.5" points="396.5081092098906,307.82491937437175 393.11110924292,295.1471429043277 384.05555462146003,297.5735714521639" stroke="black" /><polygon fill="purple" opacity="0.5" points="393.11110924292,295.1471429043277 372.5735714521639,290.94444537853997 356.88889075708,304.8528570956723" stroke="black" /><polygon fill="red" opacity="0.5" points="384.05555462146003,297.5735714521639 376.45585712870167,305.433332772876 365.94444537853997,302.4264285478361" stroke="black" /><polygon fill="green" opacity="0.5" points="365.94444537853997,302.4264285478361 356.88889075708,304.8528570956723 360.28589072405055,317.5306335657163" stroke="black" /><polygon fill="blue" opacity="0.5" points="453.1819805153395,318.03122292025694 460.60660171779824,310.6066017177982 455.3033008588991,305.3033008588991" stroke="black" /><polygon fill="purple" opacity="0.5" points="460.60660171779824,310.6066017177982 455.3033008588991,294.6966991411009 439.39339828220176,289.3933982822018" stroke="black" /><polygon fill="red" opacity="0.5" points="455.3033008588991,305.3033008588991 446.8180194846605,303.1819805153395 444.6966991411009,294.6966991411009" stroke="black" /><polygon fill="green" opacity="0.5" points="444.6966991411009,294.6966991411009 439.39339828220176,289.3933982822018 431.96877707974306,296.81801948466057" stroke="black" /></svg>