<?xml version="1.0" encoding="utf-8" ?>
<svg baseProfile="full" height="1000" version="1.1" width="1000" xmlns="http://www.w3.org/2000/svg" xmlns:ev="http://www.w3.org/2001/xml-events" xmlns:xlink="http://www.w3.org/1999/xlink"><defs /><polygon fill="#FF0000" opacity="0.7" points="-75.0,75.0 75.0,75.0 75.0,225.0 -75.0,225.0" stroke="#000000" /><polygon fill="#FF0000" opacity="0.7" points="21.966991411008934,58.14413464563083 166.85586535436917,96.96699141100893 128.03300858899107,241.85586535436917 -16.855865354369172,203.03300858899107" stroke="#000000" /><polygon fill="#FF0000" opacity="0.7" points="122.5480947161671,47.5480947161671 252.4519052838329,122.5480947161671 177.4519052838329,252.4519052838329 47.5480947161671,177.4519052838329" stroke="#000000" /><polygon fill="#FF0000" opacity="0.7" points="225.0,43.93398282201787 331.06601717798213,150.0 225.0,256.06601717798213 118.93398282201787,150.0" stroke="#000000" /><polygon fill="#FF0000" opacity="0.7" points="327.4519052838329,47.548094716167085 402.4519052838329,177.4519052838329 272.5480947161671,252.4519052838329 197.5480947161671,122.54809471616711" stroke="#000000" /><polygon fill="#FF0000" opacity="0.7" points="428.03300858899104,58.144134645630814 466.8558653543692,203.03300858899104 321.96699141100896,241.8558653543692 283.1441346456308,96.96699141100895" stroke="#000000" /><polygon fill="#FF0000" opacity="0.7" points="525.0,75.0 525.0,225.0 375.0,225.0 375.0,75.0" stroke="#000000" /><polygon fill="#FF0000" opacity="0.7" points="616.8558653543691,96.96699141100893 578.033008588991,241.85586535436917 433.14413464563086,203.03300858899107 471.9669914110089,58.14413464563083" stroke="#000000" /><polygon fill="#FF0000" opacity="0.7" points="702.4519052838328,122.54809471616709 627.451905283833,252.4519052838329 497.5480947161671,177.4519052838329 572.548094716167,47.548094716167114" stroke="#000000" /><polygon fill="#FF0000" opacity="0.7" points="781.0660171779821,150.0 675.0,256.06601717798213 568.9339828220179,150.0 675.0,43.93398282201787" stroke="#000000" /></svg>