<?xml version="1.0" encoding="utf-8" ?>
<svg baseProfile="full" height="1000" version="1.1" width="1000" xmlns="http://www.w3.org/2000/svg" xmlns:ev="http://www.w3.org/2001/xml-events" xmlns:xlink="http://www.w3.org/1999/xlink"><defs /><polygon fill="#FF0000" opacity="0.7" points="75.0,75.0 225.0,75.0 225.0,225.0 75.0,225.0" stroke="#000000" /><polygon fill="#FF0000" opacity="0.7" points="154.07206732281543,123.48349570550447 226.51650429449552,104.07206732281541 245.92793267718457,176.51650429449552 173.48349570550448,195.92793267718457" stroke="#000000" /><polygon fill="#FF0000" opacity="0.7" points="215.84936490538902,140.84936490538902 259.15063509461095,115.84936490538902 284.15063509461095,159.15063509461098 240.84936490538902,184.15063509461098" stroke="#000000" /><polygon fill="#FF0000" opacity="0.7" points="273.4834957055045,150.0 300.0,123.48349570550447 326.5165042944955,150.0 300.0,176.51650429449552" stroke="#000000" /><polygon fill="#FF0000" opacity="0.7" points="329.5096189432334,155.49038105676658 344.5096189432334,129.50961894323342 370.4903810567666,144.50961894323342 355.4903810567666,170.49038105676658" stroke="#000000" /><polygon fill="#FF0000" opacity="0.7" points="384.6906891076051,158.83883476483183 391.16116523516814,134.69068910760512 415.3093108923949,141.16116523516817 408.83883476483186,165.30931089239488" stroke="#000000" /><polygon fill="#FF0000" opacity="0.7" points="439.2857142857143,160.71428571428572 439.2857142857143,139.28571428571428 460.7142857142857,139.28571428571428 460.7142857142857,160.71428571428572" stroke="#000000" /><polygon fill="#FF0000" opacity="0.7" points="493.37087392637613,161.48198316929614 488.51801683070386,143.3708739263761 506.62912607362387,138.51801683070386 511.48198316929614,156.6291260736239" stroke="#000000" /><polygon fill="#FF0000" opacity="0.7" points="546.9497883017964,161.38354503153698 538.616454968463,146.94978830179633 553.0502116982036,138.61645496846302 561.383545031537,153.05021169820367" stroke="#000000" /><polygon fill="#FF0000" opacity="0.7" points="600.0,160.6066017177982 589.3933982822018,150.0 600.0,139.3933982822018 610.6066017177982,150.0" stroke="#000000" /></svg>